<svg width="500" height="500" viewBox="0 0 500 500" fill="none" xmlns="http://www.w3.org/2000/svg">
<path d="M242.505 0.253756C256.657 -0.894606 284.655 2.07587 298.395 4.72664C363.268 17.4952 420.439 55.453 457.376 110.281C494.869 166.147 508.387 234.708 494.9 300.616C481.687 364.677 443.85 420.99 389.518 457.447C344.124 488.037 289.914 502.833 235.269 499.552C219.096 498.56 206.828 496.286 191.092 493.211C206.653 479.11 220.221 467.1 234.62 451.626C294.761 386.991 343.315 310.896 384.289 232.954C399.067 203.797 415.088 173.795 422.676 141.829C425.454 130.116 424.836 114.937 417.493 104.894C400.227 81.277 368.512 80.2408 342.391 75.2735C342.063 104.275 338.033 128.447 330.743 156.178C319.798 195.343 296.631 251.516 274.35 286.216C260.886 246.24 237.185 156.059 210.147 125.56C200.618 114.81 187.595 107.695 173.129 107.004C144.686 105.644 123.558 122.17 103.718 140.163C114.762 151.96 129.597 168.958 138.146 182.314C168.369 229.532 201.229 310.93 208.348 366.091C189.64 397.656 146.245 447.528 109.074 456.471C102.42 452.518 91.2581 443.301 85.4715 438.212C34.5805 393.612 3.87503 330.355 0.327189 262.797C-3.03059 197.175 19.5617 132.866 63.2281 83.7515C111.224 29.6694 171.433 4.50613 242.505 0.253756Z" fill="#FF9500" style="fill:#FF9500;fill:color(display-p3 1.0000 0.5843 0.0000);fill-opacity:1;"/>
</svg>
