<svg width="282" height="282" viewBox="0 0 282 282" fill="none" xmlns="http://www.w3.org/2000/svg">
<path d="M136.514 0.142875C144.48 -0.503701 160.241 1.1688 167.975 2.6613C204.495 9.85054 236.678 31.2224 257.471 62.0931C278.577 93.5476 286.187 132.151 278.594 169.259C271.156 205.328 249.857 237.035 219.272 257.562C193.718 274.786 163.202 283.116 132.44 281.269C123.336 280.71 116.43 279.43 107.571 277.698C116.331 269.759 123.969 262.997 132.075 254.284C165.93 217.893 193.263 175.048 216.328 131.163C224.647 114.746 233.666 97.8541 237.937 79.8556C239.501 73.261 239.153 64.7146 235.02 59.0595C225.3 45.7624 207.447 45.179 192.743 42.3821C192.558 58.7111 190.289 72.321 186.186 87.9351C180.024 109.986 166.983 141.614 154.44 161.152C146.861 138.644 133.519 87.868 118.298 70.6957C112.934 64.6428 105.603 60.6371 97.4594 60.2478C81.448 59.4822 69.5546 68.7869 58.3862 78.9178C64.6029 85.5601 72.9543 95.1307 77.7664 102.65C94.7803 129.236 113.278 175.066 117.286 206.125C106.754 223.897 82.3258 251.977 61.4013 257.012C57.6553 254.787 51.372 249.597 48.1145 246.732C19.4664 221.62 2.18137 186.004 0.184185 147.966C-1.70601 111.018 11.0119 74.8089 35.593 47.1556C62.6113 16.7051 96.5051 2.53714 136.514 0.142875Z" fill="#EDEDED" style="fill:#EDEDED;fill:color(display-p3 0.9294 0.9294 0.9294);fill-opacity:1;"/>
</svg>
